<?xml version="1.0" standalone="no"?><!DOCTYPE svg PUBLIC "-//W3C//DTD SVG 1.1//EN" "http://www.w3.org/Graphics/SVG/1.1/DTD/svg11.dtd"><svg t="1575430360739" class="icon" viewBox="0 0 1024 1024" version="1.1" xmlns="http://www.w3.org/2000/svg" p-id="6546" xmlns:xlink="http://www.w3.org/1999/xlink" width="200" height="200"><defs><style type="text/css"></style></defs><path d="M938.666667 0H85.333333C34.133333 0 0 34.133333 0 85.333333v853.333334c0 42.666667 34.133333 85.333333 85.333333 85.333333h853.333334c42.666667 0 85.333333-34.133333 85.333333-85.333333V85.333333c0-51.2-34.133333-85.333333-85.333333-85.333333z" fill="#1296db" p-id="6547" data-spm-anchor-id="a313x.7781069.0.i6" class="selected"></path><path d="M85.333333 85.333333h853.333334v853.333334H85.333333z" fill="#EBDCFF" p-id="6548"></path><path d="M520.533333 384c0 25.6 0 42.666667-8.533333 59.733333s-25.6 42.666667-42.666667 51.2-25.6 25.6-51.2 34.133334-51.2 17.066667-76.8 17.066666h-42.666666V682.666667h-85.333334V247.466667H341.333333c25.6 0 51.2 0 76.8 8.533333s42.666667 17.066667 51.2 25.6 25.6 25.6 34.133334 42.666667c8.533333 17.066667 17.066667 42.666667 17.066666 59.733333z m-85.333333 8.533333c0-8.533333 0-25.6-8.533333-34.133333s-8.533333-17.066667-17.066667-25.6-17.066667-8.533333-25.6-8.533333-25.6-8.533333-42.666667-8.533334h-42.666666v162.133334H341.333333c17.066667 0 25.6 0 34.133334-8.533334s17.066667-8.533333 25.6-17.066666L426.666667 426.666667c8.533333-8.533333 8.533333-25.6 8.533333-34.133334z m315.733333 256c-8.533333 25.6-25.6 51.2-34.133333 76.8s-25.6 34.133333-42.666667 51.2-34.133333 25.6-51.2 34.133334-42.666667 8.533333-59.733333 8.533333h-34.133333v-68.266667h34.133333c8.533333 0 17.066667 0 25.6-8.533333s17.066667-8.533333 25.6-17.066667 17.066667-17.066667 17.066667-25.6 8.533333-8.533333 17.066666-17.066666L512 341.333333h93.866667l68.266666 187.733334 17.066667 68.266666 17.066667-59.733333 76.8-196.266667h85.333333L750.933333 648.533333z" fill="#1296db" p-id="6549" data-spm-anchor-id="a313x.7781069.0.i7" class="selected"></path></svg>